<?xml version="1.0" encoding="utf-8"?>
<!-- Generator: Adobe Illustrator 28.4.1, SVG Export Plug-In . SVG Version: 6.00 Build 0)  -->
<svg version="1.1" id="Layer_1" xmlns="http://www.w3.org/2000/svg" xmlns:xlink="http://www.w3.org/1999/xlink" x="0px" y="0px"
	 viewBox="0 0 464.33 130.02" style="enable-background:new 0 0 464.33 130.02;" xml:space="preserve">
<style type="text/css">
	.st0{fill:#221F1F;}
	.st1{fill:#BE1E2D;}
</style>
<g>
	<g>
		<path class="st0" d="M292.97,62.34c-2.43,4.5-5.83,8.02-10.19,10.57c-4.37,2.54-9.34,3.81-14.92,3.81
			c-5.58,0-10.55-1.27-14.92-3.81c-4.36-2.54-7.76-6.06-10.19-10.57c-2.43-4.5-3.65-9.54-3.65-15.12c0-5.58,1.21-10.62,3.65-15.12
			c2.43-4.5,5.83-8.02,10.19-10.56c4.36-2.54,9.33-3.81,14.92-3.81c5.58,0,10.55,1.27,14.92,3.81c4.36,2.54,7.76,6.06,10.19,10.56
			c2.43,4.5,3.65,9.54,3.65,15.12C296.62,52.8,295.4,57.84,292.97,62.34z M253.78,56.99c1.33,2.87,3.2,5.12,5.63,6.75
			c2.43,1.63,5.25,2.44,8.45,2.44c3.15,0,5.94-0.81,8.37-2.44c2.43-1.63,4.31-3.88,5.63-6.75c1.33-2.87,1.99-6.13,1.99-9.78
			s-0.66-6.9-1.99-9.78c-1.33-2.87-3.2-5.12-5.63-6.75c-2.43-1.63-5.22-2.44-8.37-2.44c-3.2,0-6.02,0.82-8.45,2.44
			c-2.43,1.63-4.31,3.88-5.63,6.75c-1.33,2.87-1.99,6.13-1.99,9.78S252.45,54.12,253.78,56.99z"/>
		<path class="st0" d="M329.84,18.21c4.2,0,7.91,0.79,11.14,2.36c3.23,1.57,5.73,3.83,7.5,6.75c1.77,2.93,2.65,6.33,2.65,10.19
			c0,3.7-0.88,6.97-2.65,9.82c-1.77,2.85-4.2,5.01-7.29,6.5l11.43,22.37h-13.75l-9.7-19.47h-10.52v19.47h-12.43v-58H329.84z
			 M318.66,46.39h10.19c2.93,0,5.26-0.8,7-2.4c1.74-1.6,2.61-3.76,2.61-6.46c0-2.76-0.87-4.94-2.61-6.55c-1.74-1.6-4.08-2.4-7-2.4
			h-10.19V46.39z"/>
		<path class="st0" d="M373.18,18.21v33.64c0,4.7,0.91,8.23,2.73,10.61c1.82,2.38,4.69,3.56,8.62,3.56c3.92,0,6.81-1.19,8.66-3.56
			c1.85-2.37,2.78-5.91,2.78-10.61V18.21h12.43v32.98c0,8.29-2.03,14.61-6.09,18.98c-4.06,4.36-9.98,6.55-17.77,6.55
			c-7.79,0-13.7-2.18-17.73-6.55c-4.03-4.36-6.05-10.69-6.05-18.98V18.21H373.18z"/>
		<path class="st0" d="M429.86,57.32c0.22,2.87,1.39,5.18,3.52,6.92c2.13,1.74,4.96,2.61,8.49,2.61c2.93,0,5.32-0.62,7.17-1.86
			c1.85-1.24,2.78-2.97,2.78-5.18c0-1.55-0.51-2.78-1.53-3.69c-1.02-0.91-2.46-1.63-4.31-2.15c-1.85-0.52-4.71-1.17-8.58-1.95
			c-3.81-0.72-7.02-1.64-9.61-2.78c-2.6-1.13-4.71-2.82-6.34-5.05c-1.63-2.24-2.44-5.21-2.44-8.91c0-3.37,0.92-6.38,2.78-9.03
			c1.85-2.65,4.42-4.74,7.71-6.26c3.29-1.52,7-2.28,11.14-2.28c4.25,0,8.08,0.79,11.48,2.36c3.4,1.57,6.08,3.74,8.04,6.5
			c1.96,2.76,2.97,5.88,3.02,9.36h-12.18c-0.28-2.49-1.33-4.49-3.15-6.01c-1.82-1.52-4.23-2.28-7.21-2.28
			c-2.76,0-4.97,0.58-6.63,1.74s-2.49,2.82-2.49,4.97c0,1.55,0.5,2.75,1.49,3.6c0.99,0.86,2.4,1.55,4.23,2.07
			c1.82,0.53,4.64,1.15,8.45,1.86c3.87,0.72,7.13,1.62,9.78,2.69s4.79,2.71,6.42,4.89c1.63,2.18,2.44,5.1,2.44,8.74
			c0,3.54-0.97,6.7-2.9,9.49c-1.93,2.79-4.63,4.99-8.08,6.59c-3.45,1.6-7.33,2.4-11.64,2.4c-4.64,0-8.77-0.84-12.39-2.53
			c-3.62-1.68-6.45-4.02-8.49-7c-2.04-2.98-3.09-6.32-3.15-10.03L429.86,57.32z"/>
		<path class="st0" d="M228.17,62.34c2.43-4.5,3.65-9.54,3.65-15.12c0-5.58-1.22-10.62-3.65-15.12c-2.43-4.5-5.83-8.02-10.19-10.56
			c-4.37-2.54-9.34-3.81-14.92-3.81c-5.58,0-10.55,1.27-14.92,3.81c-4.36,2.54-7.76,6.06-10.19,10.56
			c-2.43,4.5-3.65,9.54-3.65,15.12c0,5.58,1.21,10.62,3.65,15.12c2.43,4.5,5.83,8.02,10.19,10.57c4.36,2.54,9.33,3.81,14.92,3.81
			c2.54,0,4.94-0.28,7.23-0.8l4.37,6.77h12.51l-7.21-11.02l-0.02-0.03C223.37,69.23,226.12,66.14,228.17,62.34z M194.61,63.75
			c-2.43-1.63-4.31-3.88-5.63-6.75c-1.33-2.87-1.99-6.13-1.99-9.78s0.66-6.9,1.99-9.78c1.33-2.87,3.2-5.12,5.63-6.75
			c2.43-1.63,5.25-2.44,8.45-2.44c3.15,0,5.94,0.82,8.37,2.44c2.43,1.63,4.31,3.88,5.63,6.75c1.33,2.87,1.99,6.13,1.99,9.78
			s-0.66,6.91-1.99,9.78c-1.33,2.87-3.2,5.12-5.63,6.75c-2.43,1.63-5.22,2.44-8.37,2.44C199.86,66.19,197.04,65.38,194.61,63.75z"/>
	</g>
	<g>
		<path class="st0" d="M174.3,94.87h11.38v2.54h-8.52v4.83h7.02v2.47h-7.02v5.06h8.82v2.54H174.3V94.87z"/>
		<path class="st0" d="M198.48,100.8c0.95,0.93,1.43,2.42,1.43,4.48v7.02h-2.71v-6.88c0-1.21-0.26-2.13-0.77-2.77
			c-0.51-0.63-1.27-0.95-2.27-0.95c-1.06,0-1.9,0.37-2.5,1.11c-0.61,0.74-0.91,1.76-0.91,3.05v6.43h-2.69V99.55h2.34l0.3,1.67
			c0.96-1.21,2.33-1.82,4.09-1.82C196.29,99.4,197.52,99.87,198.48,100.8z"/>
		<path class="st0" d="M214.73,99.55v12.23c0,1.79-0.53,3.18-1.59,4.17c-1.06,0.99-2.71,1.48-4.93,1.48c-1.73,0-3.13-0.39-4.21-1.16
			c-1.08-0.77-1.68-1.86-1.79-3.28h2.74c0.17,0.71,0.55,1.27,1.15,1.66c0.6,0.39,1.37,0.59,2.32,0.59c2.44,0,3.66-1.19,3.66-3.56
			v-1.42c-0.93,1.4-2.32,2.09-4.16,2.09c-1.16,0-2.2-0.26-3.11-0.79c-0.91-0.52-1.63-1.27-2.14-2.24c-0.52-0.97-0.77-2.12-0.77-3.45
			c0-1.28,0.26-2.41,0.78-3.39c0.52-0.98,1.24-1.74,2.15-2.28c0.91-0.54,1.94-0.81,3.09-0.81c0.96,0,1.79,0.19,2.49,0.57
			c0.7,0.38,1.26,0.91,1.69,1.57l0.3-1.99H214.73z M211.05,108.93c0.68-0.77,1.02-1.77,1.02-3c0-1.26-0.34-2.29-1.02-3.08
			c-0.68-0.79-1.58-1.18-2.69-1.18c-1.11,0-2.01,0.39-2.69,1.17c-0.68,0.78-1.02,1.79-1.02,3.04c0,1.25,0.34,2.26,1.02,3.04
			c0.68,0.78,1.58,1.17,2.69,1.17C209.47,110.09,210.37,109.7,211.05,108.93z"/>
		<path class="st0" d="M217.69,102.5c0.52-0.99,1.25-1.75,2.19-2.29c0.94-0.54,2.01-0.81,3.23-0.81c1.23,0,2.31,0.25,3.25,0.75
			c0.94,0.5,1.68,1.2,2.22,2.12c0.54,0.91,0.82,1.98,0.83,3.21c0,0.33-0.02,0.67-0.07,1.02h-9.62v0.15
			c0.07,1.11,0.42,1.99,1.05,2.64c0.63,0.65,1.47,0.97,2.52,0.97c0.83,0,1.53-0.2,2.09-0.58c0.56-0.39,0.94-0.94,1.12-1.66h2.69
			c-0.23,1.3-0.86,2.36-1.88,3.19c-1.02,0.83-2.3,1.25-3.82,1.25c-1.33,0-2.49-0.27-3.48-0.81c-0.99-0.54-1.75-1.3-2.29-2.28
			c-0.54-0.98-0.81-2.12-0.81-3.41C216.9,104.64,217.16,103.49,217.69,102.5z M226.67,104.53c-0.12-0.93-0.49-1.66-1.11-2.18
			c-0.62-0.52-1.41-0.78-2.35-0.78c-0.88,0-1.64,0.27-2.28,0.81c-0.64,0.54-1.01,1.26-1.11,2.15H226.67z"/>
		<path class="st0" d="M242,100.8c0.95,0.93,1.43,2.42,1.43,4.48v7.02h-2.71v-6.88c0-1.21-0.26-2.13-0.77-2.77
			c-0.51-0.63-1.27-0.95-2.27-0.95c-1.06,0-1.9,0.37-2.5,1.11c-0.61,0.74-0.91,1.76-0.91,3.05v6.43h-2.69V99.55h2.34l0.3,1.67
			c0.96-1.21,2.33-1.82,4.09-1.82C239.81,99.4,241.04,99.87,242,100.8z"/>
		<path class="st0" d="M256.3,100.8c0.96,0.93,1.43,2.42,1.43,4.48v7.02h-2.69v-6.88c0-1.21-0.26-2.13-0.78-2.77
			c-0.52-0.63-1.28-0.95-2.28-0.95c-1.06,0-1.9,0.37-2.5,1.11c-0.61,0.74-0.91,1.75-0.91,3.03v6.45h-2.69V94.87h2.69v6.53
			c0.96-1.33,2.3-1.99,4.01-1.99C254.1,99.4,255.34,99.87,256.3,100.8z"/>
		<path class="st0" d="M272.37,109.96v2.34h-1.42c-0.83,0-1.43-0.17-1.79-0.52s-0.55-0.86-0.55-1.52c-0.96,1.46-2.37,2.19-4.21,2.19
			c-1.43,0-2.57-0.33-3.44-1c-0.86-0.66-1.29-1.58-1.29-2.74c0-1.31,0.46-2.32,1.39-3.03c0.93-0.71,2.28-1.06,4.06-1.06h3.21v-0.77
			c0-0.71-0.25-1.27-0.75-1.68c-0.5-0.41-1.19-0.61-2.07-0.61c-0.78,0-1.42,0.17-1.93,0.51c-0.51,0.34-0.81,0.79-0.91,1.36h-2.64
			c0.13-1.28,0.7-2.27,1.69-2.98s2.3-1.06,3.91-1.06c1.71,0,3.03,0.4,3.96,1.2c0.93,0.8,1.39,1.94,1.39,3.44v5.03
			c0,0.6,0.28,0.9,0.85,0.9H272.37z M268.34,106.62H265c-0.83,0-1.47,0.16-1.92,0.49c-0.45,0.32-0.67,0.8-0.67,1.43
			c0,0.55,0.21,0.99,0.63,1.32c0.42,0.33,1,0.5,1.73,0.5c1.11,0,1.98-0.3,2.6-0.9c0.62-0.6,0.94-1.4,0.96-2.39V106.62z"/>
		<path class="st0" d="M280.89,99.55v2.52h-1.2c-1.11,0-1.92,0.36-2.42,1.08c-0.5,0.72-0.75,1.64-0.75,2.75v6.4h-2.69V99.55h2.39
			l0.3,1.92c0.37-0.6,0.84-1.07,1.42-1.41c0.58-0.34,1.36-0.51,2.34-0.51H280.89z"/>
		<path class="st0" d="M285.13,94.9c0.32,0.31,0.47,0.69,0.47,1.16s-0.16,0.85-0.47,1.16s-0.71,0.46-1.17,0.46s-0.86-0.15-1.17-0.46
			s-0.47-0.69-0.47-1.16s0.16-0.85,0.47-1.16c0.32-0.31,0.71-0.46,1.17-0.46S284.81,94.6,285.13,94.9z M282.61,99.55h2.69v12.75
			h-2.69V99.55z"/>
		<path class="st0" d="M300.15,109.96v2.34h-1.42c-0.83,0-1.43-0.17-1.79-0.52s-0.55-0.86-0.55-1.52c-0.96,1.46-2.37,2.19-4.21,2.19
			c-1.43,0-2.57-0.33-3.44-1c-0.86-0.66-1.29-1.58-1.29-2.74c0-1.31,0.46-2.32,1.39-3.03c0.93-0.71,2.28-1.06,4.06-1.06h3.21v-0.77
			c0-0.71-0.25-1.27-0.75-1.68s-1.19-0.61-2.07-0.61c-0.78,0-1.42,0.17-1.93,0.51c-0.51,0.34-0.81,0.79-0.91,1.36h-2.64
			c0.13-1.28,0.7-2.27,1.69-2.98c1-0.71,2.3-1.06,3.91-1.06c1.71,0,3.03,0.4,3.96,1.2s1.39,1.94,1.39,3.44v5.03
			c0,0.6,0.28,0.9,0.85,0.9H300.15z M296.11,106.62h-3.34c-0.83,0-1.47,0.16-1.92,0.49c-0.45,0.32-0.67,0.8-0.67,1.43
			c0,0.55,0.21,0.99,0.63,1.32s1,0.5,1.73,0.5c1.11,0,1.98-0.3,2.6-0.9c0.62-0.6,0.94-1.4,0.96-2.39V106.62z"/>
		<path class="st0" d="M324.39,110.01v2.29h-2.07c-0.65,0-1.22-0.08-1.71-0.24c-0.49-0.16-0.92-0.44-1.28-0.86l-0.67-0.75
			c-1.39,1.33-3,1.99-4.81,1.99c-1.69,0-3.08-0.4-4.17-1.2c-1.09-0.8-1.63-1.93-1.63-3.39c0-0.96,0.29-1.88,0.88-2.75
			c0.59-0.87,1.55-1.6,2.88-2.18c-0.6-0.75-1-1.4-1.22-1.96c-0.22-0.56-0.32-1.21-0.32-1.96c0-0.81,0.22-1.55,0.67-2.2
			s1.06-1.17,1.84-1.54c0.78-0.37,1.66-0.56,2.64-0.56c0.83,0,1.58,0.17,2.25,0.51c0.67,0.34,1.2,0.81,1.59,1.41
			c0.39,0.6,0.59,1.27,0.59,2.02c0,0.98-0.31,1.87-0.92,2.65c-0.61,0.79-1.67,1.49-3.16,2.1l3.19,3.46l2.59-3.99h2.69l-3.79,5.63
			l0.8,0.87c0.22,0.25,0.43,0.42,0.65,0.5c0.22,0.08,0.48,0.12,0.8,0.12H324.39z M317.21,108.89l-4.08-4.46l-0.05-0.05
			c-0.83,0.43-1.42,0.89-1.76,1.38c-0.34,0.49-0.51,1.08-0.51,1.78c0,0.85,0.29,1.51,0.87,1.98c0.58,0.47,1.34,0.71,2.29,0.71
			C315.14,110.24,316.22,109.79,317.21,108.89z M313.6,97.38c-0.43,0.42-0.65,0.94-0.65,1.57c0,0.53,0.1,1,0.31,1.42
			c0.21,0.42,0.58,0.93,1.13,1.54c1.89-0.8,2.84-1.86,2.84-3.19c0-0.58-0.18-1.05-0.54-1.42c-0.36-0.37-0.83-0.55-1.43-0.55
			C314.59,96.76,314.03,96.97,313.6,97.38z"/>
		<path class="st0" d="M334.16,98.94c0.69-1.34,1.67-2.38,2.94-3.11c1.27-0.74,2.75-1.11,4.45-1.11c1.31,0,2.5,0.25,3.55,0.75
			c1.05,0.5,1.91,1.21,2.58,2.13c0.66,0.92,1.09,1.99,1.27,3.2h-2.86c-0.28-1.11-0.83-1.98-1.64-2.62s-1.82-0.95-3.01-0.95
			c-1.08,0-2.03,0.27-2.84,0.81c-0.81,0.54-1.44,1.29-1.87,2.24c-0.43,0.96-0.65,2.06-0.65,3.3c0,1.23,0.22,2.33,0.65,3.29
			s1.05,1.71,1.87,2.25c0.81,0.54,1.76,0.81,2.84,0.81c1.2,0,2.2-0.32,3-0.95c0.8-0.63,1.35-1.5,1.63-2.62h2.87
			c-0.18,1.23-0.6,2.3-1.26,3.21c-0.66,0.91-1.51,1.62-2.55,2.12c-1.05,0.5-2.23,0.75-3.56,0.75c-1.69,0-3.18-0.37-4.45-1.1
			c-1.27-0.73-2.25-1.76-2.94-3.1c-0.69-1.34-1.03-2.89-1.03-4.67C333.13,101.83,333.47,100.28,334.16,98.94z"/>
		<path class="st0" d="M353.74,111.64c-0.99-0.54-1.75-1.3-2.29-2.29c-0.54-0.99-0.81-2.13-0.81-3.42c0-1.28,0.27-2.41,0.81-3.4
			s1.3-1.76,2.29-2.3c0.99-0.55,2.12-0.82,3.4-0.82c1.28,0,2.41,0.27,3.4,0.82c0.99,0.55,1.75,1.32,2.29,2.3
			c0.54,0.99,0.81,2.12,0.81,3.4c0,1.29-0.27,2.44-0.81,3.42c-0.54,0.99-1.3,1.75-2.29,2.29c-0.99,0.54-2.12,0.81-3.4,0.81
			C355.86,112.45,354.73,112.18,353.74,111.64z M359.87,108.98c0.69-0.79,1.03-1.81,1.03-3.05c0-1.25-0.34-2.26-1.03-3.05
			c-0.69-0.79-1.6-1.18-2.73-1.18c-1.13,0-2.03,0.4-2.72,1.18c-0.68,0.79-1.02,1.81-1.02,3.05c0,1.25,0.34,2.26,1.02,3.05
			c0.68,0.79,1.59,1.18,2.72,1.18C358.27,110.16,359.18,109.77,359.87,108.98z"/>
		<path class="st0" d="M376.24,100.8c0.96,0.93,1.43,2.42,1.43,4.48v7.02h-2.72v-6.88c0-1.21-0.26-2.13-0.77-2.77
			c-0.52-0.63-1.27-0.95-2.27-0.95c-1.06,0-1.9,0.37-2.5,1.11c-0.61,0.74-0.91,1.76-0.91,3.05v6.43h-2.69V99.55h2.34l0.3,1.67
			c0.96-1.21,2.32-1.82,4.08-1.82C374.05,99.4,375.28,99.87,376.24,100.8z"/>
		<path class="st0" d="M382.25,108.09c0.05,0.66,0.36,1.21,0.93,1.63c0.57,0.42,1.32,0.63,2.23,0.63c0.81,0,1.47-0.15,1.98-0.46
			c0.51-0.31,0.76-0.72,0.76-1.23c0-0.43-0.12-0.76-0.35-0.97c-0.23-0.22-0.54-0.37-0.93-0.46c-0.39-0.09-0.99-0.19-1.81-0.29
			c-1.11-0.13-2.03-0.31-2.75-0.54c-0.72-0.22-1.3-0.58-1.74-1.07c-0.44-0.49-0.66-1.15-0.66-1.98c0-0.78,0.22-1.47,0.66-2.08
			c0.44-0.61,1.05-1.08,1.82-1.41c0.77-0.33,1.65-0.5,2.63-0.5c1.61,0,2.92,0.36,3.92,1.07s1.55,1.72,1.63,3.01h-2.62
			c-0.07-0.58-0.36-1.06-0.87-1.43c-0.51-0.37-1.16-0.56-1.94-0.56c-0.78,0-1.41,0.15-1.89,0.45c-0.48,0.3-0.72,0.71-0.72,1.22
			c0,0.38,0.12,0.67,0.36,0.86c0.24,0.19,0.54,0.32,0.91,0.4s0.96,0.16,1.77,0.26c1.1,0.12,2.02,0.29,2.77,0.54
			c0.75,0.24,1.34,0.62,1.79,1.15c0.45,0.52,0.67,1.23,0.67,2.13c0,0.8-0.23,1.5-0.7,2.1c-0.47,0.61-1.11,1.07-1.92,1.39
			c-0.81,0.32-1.73,0.49-2.74,0.49c-1.71,0-3.09-0.39-4.15-1.16c-1.06-0.77-1.6-1.84-1.63-3.2H382.25z"/>
		<path class="st0" d="M393.81,101.92h-2.22v-2.37h2.22v-3.56h2.71v3.56h3.06v2.37h-3.06v6.65c0,0.5,0.1,0.85,0.3,1.06
			c0.2,0.21,0.54,0.31,1.02,0.31h2.04v2.37h-2.59c-1.21,0-2.1-0.28-2.65-0.85c-0.56-0.56-0.83-1.44-0.83-2.62V101.92z"/>
		<path class="st0" d="M408.38,99.55v2.52h-1.2c-1.11,0-1.92,0.36-2.42,1.08c-0.5,0.72-0.75,1.64-0.75,2.75v6.4h-2.69V99.55h2.39
			l0.3,1.92c0.37-0.6,0.84-1.07,1.42-1.41c0.58-0.34,1.36-0.51,2.34-0.51H408.38z"/>
		<path class="st0" d="M421.53,99.55v12.75h-2.37l-0.3-1.62c-0.96,1.18-2.28,1.77-3.94,1.77c-1.49,0-2.71-0.46-3.64-1.4
			c-0.93-0.93-1.39-2.42-1.39-4.48v-7.02h2.69v6.75c0,1.25,0.25,2.19,0.75,2.84s1.24,0.97,2.22,0.97c1.03,0,1.83-0.38,2.42-1.13
			c0.58-0.75,0.87-1.79,0.87-3.1v-6.33H421.53z"/>
		<path class="st0" d="M432.12,109.5c0.55-0.44,0.91-1.03,1.07-1.78h2.74c-0.23,1.36-0.79,2.45-1.68,3.28
			c-0.89,0.82-2.05,1.3-3.48,1.43l-0.2,0.8h0.35c0.68,0,1.22,0.17,1.63,0.51c0.41,0.34,0.61,0.79,0.61,1.36
			c0,0.66-0.22,1.2-0.67,1.59c-0.45,0.4-1.05,0.6-1.79,0.6h-2.57v-1.44h2.07c0.61,0,0.92-0.24,0.92-0.72c0-0.2-0.08-0.36-0.25-0.47
			c-0.17-0.12-0.38-0.17-0.65-0.17h-1.34l0.5-2.04c-1.73-0.15-3.11-0.81-4.13-1.98c-1.03-1.17-1.54-2.69-1.54-4.55
			c0-1.29,0.27-2.43,0.8-3.41c0.53-0.98,1.28-1.74,2.25-2.28c0.97-0.54,2.1-0.81,3.38-0.81c1.59,0,2.9,0.42,3.91,1.26
			s1.64,1.98,1.89,3.42h-2.77c-0.18-0.73-0.55-1.31-1.1-1.74s-1.22-0.65-2.02-0.65c-1.08,0-1.95,0.39-2.6,1.17
			c-0.66,0.78-0.98,1.79-0.98,3.04c0,1.26,0.33,2.29,0.98,3.08c0.66,0.79,1.52,1.18,2.6,1.18
			C430.88,110.16,431.57,109.94,432.12,109.5z"/>
		<path class="st0" d="M450.3,109.96v2.34h-1.42c-0.83,0-1.43-0.17-1.79-0.52s-0.55-0.86-0.55-1.52c-0.96,1.46-2.37,2.19-4.21,2.19
			c-1.43,0-2.57-0.33-3.44-1c-0.86-0.66-1.29-1.58-1.29-2.74c0-1.31,0.46-2.32,1.39-3.03c0.93-0.71,2.28-1.06,4.06-1.06h3.21v-0.77
			c0-0.71-0.25-1.27-0.75-1.68s-1.19-0.61-2.07-0.61c-0.78,0-1.42,0.17-1.93,0.51s-0.81,0.79-0.91,1.36h-2.64
			c0.13-1.28,0.7-2.27,1.69-2.98s2.3-1.06,3.91-1.06c1.71,0,3.03,0.4,3.96,1.2c0.93,0.8,1.4,1.94,1.4,3.44v5.03
			c0,0.6,0.28,0.9,0.85,0.9H450.3z M441.65,96.76c-0.16,0.22-0.24,0.48-0.24,0.8h-1.62v-0.4c0-0.71,0.21-1.3,0.62-1.76
			s0.96-0.69,1.62-0.69c0.38,0,0.69,0.06,0.92,0.19c0.23,0.12,0.5,0.3,0.8,0.54c0.18,0.17,0.34,0.29,0.49,0.37
			c0.14,0.08,0.3,0.12,0.49,0.12c0.27,0,0.47-0.11,0.62-0.32c0.15-0.21,0.22-0.48,0.22-0.8h1.64v0.4c0,0.71-0.21,1.3-0.62,1.77
			c-0.42,0.47-0.96,0.7-1.62,0.7c-0.4,0-0.72-0.07-0.97-0.2s-0.5-0.32-0.75-0.55c-0.18-0.17-0.34-0.29-0.49-0.37
			c-0.14-0.08-0.3-0.12-0.49-0.12C442.02,96.44,441.81,96.54,441.65,96.76z M446.27,106.62h-3.34c-0.83,0-1.47,0.16-1.92,0.49
			c-0.45,0.32-0.67,0.8-0.67,1.43c0,0.55,0.21,0.99,0.63,1.32s1,0.5,1.73,0.5c1.11,0,1.98-0.3,2.6-0.9c0.62-0.6,0.94-1.4,0.96-2.39
			V106.62z"/>
		<path class="st0" d="M454.4,111.64c-0.99-0.54-1.75-1.3-2.29-2.29c-0.54-0.99-0.81-2.13-0.81-3.42c0-1.28,0.27-2.41,0.81-3.4
			s1.3-1.76,2.29-2.3c0.99-0.55,2.12-0.82,3.4-0.82c1.28,0,2.41,0.27,3.4,0.82c0.99,0.55,1.75,1.32,2.29,2.3
			c0.54,0.99,0.81,2.12,0.81,3.4c0,1.29-0.27,2.44-0.81,3.42c-0.54,0.99-1.3,1.75-2.29,2.29c-0.99,0.54-2.12,0.81-3.4,0.81
			C456.52,112.45,455.39,112.18,454.4,111.64z M460.53,108.98c0.69-0.79,1.03-1.81,1.03-3.05c0-1.25-0.34-2.26-1.03-3.05
			c-0.69-0.79-1.6-1.18-2.73-1.18c-1.13,0-2.03,0.4-2.72,1.18c-0.68,0.79-1.02,1.81-1.02,3.05c0,1.25,0.34,2.26,1.02,3.05
			c0.68,0.79,1.59,1.18,2.72,1.18C458.93,110.16,459.84,109.77,460.53,108.98z"/>
	</g>
	<g>
		<polygon class="st1" points="0,65.01 65.01,0 130.02,0 130.02,65.01 65.01,130.02 65.01,65.01 		"/>
		<polygon class="st1" points="47.29,112.3 0,130.02 17.72,82.73 47.29,82.73 		"/>
	</g>
</g>
</svg>
